<svg width="19" height="18" viewBox="0 0 19 18" fill="none" xmlns="http://www.w3.org/2000/svg">
<path fill-rule="evenodd" clip-rule="evenodd" d="M5.65497 2.65299C6.21724 1.10711 7.7257 0 9.5 0C11.2743 0 12.7828 1.10711 13.345 2.65299C15.6743 3.23158 17.5109 5.00164 18.128 7.28841C18.624 9.12695 18.624 11.0599 18.128 12.8984C17.4864 15.2762 15.5262 17.0952 13.0648 17.5972L12.6455 17.6827C10.5708 18.1058 8.42919 18.1058 6.35451 17.6827L5.93518 17.5972C3.47375 17.0952 1.5136 15.2762 0.872052 12.8984C0.375982 11.0599 0.375983 9.12695 0.872052 7.28841C1.48906 5.00163 3.32573 3.23158 5.65497 2.65299ZM9.49999 7.18276C7.85636 7.18276 6.52394 8.4859 6.52394 10.0934C6.52394 11.7009 7.85636 13.0041 9.49999 13.0041C11.1436 13.0041 12.476 11.7009 12.476 10.0934C12.476 8.4859 11.1436 7.18276 9.49999 7.18276ZM7.67596 10.0934C7.67596 9.10817 8.49261 8.30947 9.49999 8.30947C10.5074 8.30947 11.324 9.10817 11.324 10.0934C11.324 11.0787 10.5074 11.8774 9.49999 11.8774C8.49261 11.8774 7.67596 11.0787 7.67596 10.0934Z" fill="none"/>
</svg>
