<svg xmlns="http://www.w3.org/2000/svg" xmlns:xlink="http://www.w3.org/1999/xlink" version="1.1" x="0px" y="0px" viewBox="0 0 256 256" enable-background="new 0 0 256 256" xml:space="preserve">
<metadata> Svg Vector Icons : http://www.onlinewebfonts.com/icon </metadata>
<g><g><g><path fill="#4287f5" d="M123.6,10.7c-2.1,0.7-6.5,4.9-56.9,55.2c-38.2,38.2-54.9,55.1-55.5,56.4c-1.4,2.9-1.6,6.4-0.6,9.6c0.8,2.7,1,2.9,55.3,57.3c38.2,38.2,55.1,54.9,56.4,55.5c2.8,1.3,6.4,1.6,9.6,0.7l2.7-0.8l54.6-54.5c38.2-38.2,54.9-55.1,55.5-56.5c1.3-2.8,1.6-6.4,0.7-9.6l-0.8-2.7l-54.5-54.6c-41.3-41.3-55-54.8-56.6-55.5C130.8,9.9,126.6,9.6,123.6,10.7z M162.2,97.1c9.6,8,17.4,14.6,17.4,14.8c0,0.3-34.9,29.7-35.6,29.9c-0.2,0.1-0.4-3.7-0.4-8.9v-9h-12h-12V149v25.1h-12h-12v-36.9v-36.9h24h24l0-1.3c0-0.7,0-4.8,0-9c0-6,0.1-7.7,0.6-7.6C144.6,82.5,152.7,89.1,162.2,97.1z"/></g></g></g>
</svg>