<?xml version="1.0" encoding="utf-8"?>
<!-- Generator: Adobe Illustrator 25.4.1, SVG Export Plug-In . SVG Version: 6.00 Build 0)  -->
<svg version="1.1" id="Layer_1" xmlns="http://www.w3.org/2000/svg" xmlns:xlink="http://www.w3.org/1999/xlink" x="0px" y="0px"
	 viewBox="0 0 104 105.3" style="enable-background:new 0 0 104 105.3;" xml:space="preserve">
<style type="text/css">
	.st0{fill:#FFFFFF;}
</style>
<rect x="62.1" y="21.8" width="19.9" height="19.9"/>
<path d="M92.7,21.8c-3-4-6.6-7.6-10.7-10.6v10.6H92.7z"/>
<path class="st0" d="M82.1,21.8V11.2c-5.8-4.3-12.6-7.4-19.9-8.9v19.5H82.1z"/>
<path class="st0" d="M82.1,41.7h19.8c-1.6-7.3-4.7-14.1-9.1-19.9H82.1V41.7z"/>
<rect x="62.2" y="61.6" width="19.9" height="19.9"/>
<path d="M101.8,41.7H82.1v10h0v9.9h19.5C103.1,56.5,103.2,46.7,101.8,41.7z"/>
<path d="M82.1,92.2c4-3,7.6-6.6,10.6-10.7H82.1V92.2z"/>
<polygon class="st0" points="82.1,51.5 82.1,41.7 62.1,41.7 62.1,51.7 62.2,51.7 62.2,61.6 82.1,61.6 82.1,51.5 "/>
<path class="st0" d="M82.1,81.5h10.6c4.3-5.8,7.4-12.6,8.9-19.9H82.1V81.5z"/>
<path class="st0" d="M62.2,81.5v19.8c7.3-1.6,14.1-4.7,19.9-9.1V81.5H62.2z"/>
<rect x="22.5" y="21.8" width="19.9" height="19.9"/>
<path d="M52.6,1.2L52.6,1.2c-0.1,0-0.2,0-0.3,0c-0.1,0-0.2,0-0.3,0v0c-3.3,0.1-6.5,0.4-9.6,1.1v19.5H52h0.6h9.6V2.3
	C59,1.7,55.8,1.3,52.6,1.2z"/>
<path d="M11.8,21.8c3-4,6.6-7.6,10.7-10.6v10.6H11.8z"/>
<polygon class="st0" points="52.6,21.8 52,21.8 42.4,21.8 42.4,41.7 52,41.7 52.6,41.7 62.1,41.7 62.1,21.8 "/>
<path class="st0" d="M22.5,21.8V11.2c5.8-4.3,12.6-7.4,19.9-8.9v19.5H22.5z"/>
<path class="st0" d="M22.5,41.7H2.7c1.6-7.3,4.7-14.1,9.1-19.9h10.7V41.7z"/>
<path d="M62.2,81.5h-9.8h-0.2h-9.8v19.8c3.2,0.7,6.4,1.1,9.8,1.1v0c0,0,0.1,0,0.1,0c0,0,0.1,0,0.1,0v0c3.4-0.1,6.6-0.4,9.8-1.1V81.5
	z"/>
<polygon points="62.1,51.5 62.1,41.7 52.6,41.7 52,41.7 42.4,41.7 42.4,51.5 42.4,51.5 42.4,61.6 52,61.6 52.6,61.6 62.2,61.6 
	62.2,51.5 "/>
<rect x="22.5" y="61.6" width="19.9" height="19.9"/>
<path d="M2.7,41.7h19.8v10h0v9.9H3C1.5,56.5,1.3,46.7,2.7,41.7z"/>
<path d="M22.5,92.2c-4-3-7.6-6.6-10.6-10.7h10.6V92.2z"/>
<polygon class="st0" points="22.5,51.5 22.5,41.7 42.4,41.7 42.4,51.7 42.4,51.7 42.4,61.6 22.5,61.6 22.5,51.5 "/>
<polygon class="st0" points="52.4,61.6 52.2,61.6 42.4,61.6 42.4,81.5 52.2,81.5 52.4,81.5 62.2,81.5 62.2,61.6 "/>
<path class="st0" d="M22.5,81.5H11.9C7.6,75.7,4.5,69,3,61.6h19.5V81.5z"/>
<path class="st0" d="M42.4,81.5v19.8c-7.3-1.6-14.1-4.7-19.9-9.1V81.5H42.4z"/>
</svg>
