<?xml version="1.0" encoding="utf-8"?>

<!DOCTYPE svg PUBLIC "-//W3C//DTD SVG 1.1//EN" "http://www.w3.org/Graphics/SVG/1.1/DTD/svg11.dtd">
<svg version="1.1" id="Layer_1" xmlns="http://www.w3.org/2000/svg" xmlns:xlink="http://www.w3.org/1999/xlink" x="0px" y="0px"
	 viewBox="0 0 2296.268 1659.686" enable-background="new 0 0 2296.268 1659.686" xml:space="preserve">
<g>
	<path d="M1523.313,30.045c10.583-0.916,21.038,1.554,31.578,2.087c41.463,2.661,134.085,48.923,134.256,150.29
		c-4.807,93.389-94.937,138.812-142.454,137.514c-13.692,0.043-27.511,1.15-41.075-1.32c-48.011-8.371-96.217-39.054-120.287-90.221
		c-21.908-51.404-8.76-84.029-4.216-101.208c6.665-22.507,22.678-40.373,38.818-56.726c12.265-10.796,26.425-19.398,41.096-26.553
		C1486.973,35.202,1484.624,33.414,1523.313,30.045z"/>
	<path d="M1291.193,217.385c15.099-1.351,4.087-1.425,191.471,180.058c364.629,359.371,349.602,337.618,349.661,348.788
		c-2.13,0.381-146.187,0.821-153.718-2.023c-16.13-10.891-78.202-123.55-258.099-150.865c-9.859-1.235-19.335-4.685-29.321-4.94
		c-30.407-0.426-60.814-3.769-91.222-1.32c-13.819,1.363-27.767,0.256-41.48,2.577c-22.678,1.895-44.929,6.899-67.479,9.582
		c-8.794,1.299-17.163,4.45-25.85,6.175c-105.419,16.911-263.996,88.846-266.126,89.667c-50.987,18.038,21.818,16.859-172.265-4.195
		c-11.499-0.106-22.507-4.067-33.963-4.301c-18.994-0.17-37.668-4.259-56.577-5.6c-22.827-4.642-46.59-3.343-69.055-9.795
		c1.312-19.976,140.328-197.716,321.788-320.212C1013.587,270.263,1144.525,217.942,1291.193,217.385z"/>
	<path d="M1748.535,447.866c13.518,2.996,547.178,360.326,415.863,433.089c-54.434,26.574-124.132,13.943-165.983,20.293
		c9.072,11.886,60.622,61.293,65.158,65.371c0,2.577,0.021,5.132,0.021,7.73c-26.926-5.042-79.28-28.303-184.359-10.604
		c-229.969,41.091-363.062,271.308-277.646,479.402c4.301,12.734,12.712,23.891,15.012,37.285c0,0-866.529-132.552-885.086-134.426
		c-6.482-31.231,34.861-167.942-114.453-328.005C493.446,894.751,307.016,825.738,137.276,788.286
		c-27.107-4.94-53.894-11.584-81.32-14.586c-6.069-0.639-16.162-1.448-14.48-10.114c0.706-5.061,36.335-204.476,39.691-213.276
		c5.662-3.323,6.883,0.203,179.291,1.661c41.152,3.082,138.541,0.49,160.383,4.301c45.576,7.487,77.145,103.328,100.399,161.639
		c2.291,8.513-0.989,5.267,312.142,43.929c16.311,1.32,32.494,5.153,48.954,4.11c17.444-1.203,501.129-265.252,725.215-16.375
		c13.351,13.883,24.104,29.896,35.241,45.547c3.066,5.025,9.22,5.302,14.501,5.409c14.927,0.064,29.79,2.385,44.759,1.64
		c68.276-1.589,163.361,11.928,195.56-43.226c20.973-34.438,3.227-79.451-2.811-98.483
		c-39.543-91.289-126.109-182.054-142.731-202.267C1749.259,455.489,1749.131,451.422,1748.535,447.866z"/>
	<path d="M318.803,1007.396c77.622-11.133,172.279,12.113,240.574,70.652c102.378,83.768,139.544,230.039,88.815,354.367
		c-35.986,92.031-118.413,164.237-214.404,187.724c-25.188,4.16-82.685,24.149-183.891-9.369
		c-23.301-9.785-65.976-21.912-127.74-87.09c-12.201-12.35-20.953-27.49-30.79-41.671c-10.391-14.65-17.248-31.365-24.488-47.698
		c-71.684-177.949,37.793-376.22,206.143-417.459C287.757,1011.378,303.386,1009.781,318.803,1007.396 M348.507,1102.62
		c-19.335,2.47-38.818,4.812-57.493,10.689c-197.669,77.703-186.717,325.976-17.908,400.127
		c60.493,26.115,141.572,22.555,207.548-22.869c108.915-79.222,117.993-229.382,35.496-318.317
		c-13.479-16.609-31.344-28.789-49.145-40.287C433.76,1111.054,384.498,1099.433,348.507,1102.62z"/>
	<path d="M1915.732,1015.381c150.078-16.265,291.006,80.281,328.836,225.647c29.757,112.584-5.179,231.857-93.223,310.247
		c-57.053,45.872-75.751,48.335-97.226,58.28c-74.494,29.219-167.651,23.126-225.413-3.684
		c-18.653-6.196-35.305-16.779-51.977-26.894c-189.432-123.001-186.627-415.756,27.532-530.06
		C1839.011,1031.16,1877.041,1020.002,1915.732,1015.381 M1943.456,1109.243c-16.247,1.405-32.792,1.831-48.485,6.601
		c-164.281,41.07-216.87,254.255-82.235,367.547c114.596,94.729,288.921,42.26,333.67-98.866
		c31.452-94.995-10.605-200.741-98.674-249.07c-13.734-8.581-29.449-13.032-44.333-19.058
		C1983.743,1111.99,1963.621,1109.158,1943.456,1109.243z"/>
	<path d="M394.48,1151.468c145.955,34.654,180.243,219.857,55.597,304.242c-94.723,58.065-214.902,21.379-252.733-87.964
		c-4.855-19.952-9.71-40.436-7.538-61.112c2.236-23.104,7.346-46.377,18.823-66.776
		C239.201,1179.003,310.371,1136.802,394.48,1151.468z"/>
	<path d="M2008.656,1166.118c108.123,42.551,136.342,181.338,60.24,264.615c-27.546,28.526-60.235,49.68-101.996,53.404
		c-149.923,17.115-233.151-143.859-159.574-253.393C1850.368,1163.505,1934.365,1136.888,2008.656,1166.118z"/>
</g>
</svg>
