<?xml version="1.0" encoding="utf-8"?>
<!-- Generator: Adobe Illustrator 25.2.3, SVG Export Plug-In . SVG Version: 6.00 Build 0)  -->
<svg version="1.1" id="Layer_1" xmlns="http://www.w3.org/2000/svg" xmlns:xlink="http://www.w3.org/1999/xlink" x="0px" y="0px"
	 viewBox="0 0 24 24" style="enable-background:new 0 0 24 24;" xml:space="preserve">
<path d="M13.5,4.6c1.1,0,2-0.9,2-2s-0.9-2-2-2s-2,0.9-2,2S12.4,4.6,13.5,4.6z M10,18.4l1-4.4l2.1,2v6h2v-7.5l-2.1-2l0.6-3
	c1.3,1.5,3.3,2.5,5.5,2.5v-2c-1.9,0-3.5-1-4.3-2.4l-1-1.6c-0.4-0.6-1-1-1.7-1c-0.3,0-0.5,0.1-0.8,0.1L6.1,7.4v4.7h2V8.7L9.9,8
	L8.3,16l-4.9-1L3,17L10,18.4z"/>
</svg>
